<svg xmlns="http://www.w3.org/2000/svg" width="2200" height="550" viewBox="0 0 2200 550"><style type="text/css">.st0{fill:url(#XMLID_4_);} .st1{opacity:0.3;fill:#F7F8F8;} .st2{fill:#F7F8F8;} .st3{opacity:0.77;fill:#F7F8F8;} .st4{opacity:0.16;fill:#F7F8F8;} .st5{opacity:0.13;fill:#F7F8F8;} .st6{fill:#89A7C4;} .st7{fill:#5C81A9;} .st8{fill:#A6C3DF;} .st9{fill:#7096BD;} .st10{fill:#1C2C50;} .st11{fill:#223662;} .st12{fill:url(#XMLID_5_);} .st13{fill:#293C67;} .st14{fill:url(#XMLID_95_);} .st15{fill:#101E3B;} .st16{fill:#111B39;} .st17{fill:#466496;} .st18{fill:url(#XMLID_103_);} .st19{fill:#E2DE85;} .st20{fill:#EFEFEF;} .st21{fill:url(#XMLID_105_);} .st22{opacity:0.4;fill:#101E3B;} .st23{opacity:0.5;fill:#1D284A;} .st24{opacity:0.8;fill:#1D284A;} .st25{opacity:0.3;fill:#101E3B;} .st26{opacity:0.3;fill:#1D284A;} .st27{opacity:0.2;fill:#101E3B;} .st28{fill:url(#XMLID_166_);} .st29{opacity:0.57;fill:#1C2C50;} .st30{opacity:0.42;fill:url(#XMLID_367_);} .st31{opacity:0.42;fill:url(#XMLID_368_);}</style><linearGradient id="XMLID_4_" gradientUnits="userSpaceOnUse" x1="1100" y1="353.984" x2="1100"><stop offset="0" stop-color="#3A6CC5"/><stop offset="1" stop-color="#2D5497"/></linearGradient><path id="XMLID_330_" class="st0" d="M0 0h2200v354h-2200z"/><circle id="XMLID_322_" class="st1" cx="1340.7" cy="66.1" r=".5"/><circle id="XMLID_315_" class="st1" cx="1324.5" cy="66.7" r=".5"/><circle id="XMLID_312_" class="st1" cx="1314.3" cy="60.7" r=".5"/><circle id="XMLID_311_" class="st2" cx="1314.2" cy="64.6" r=".5"/><circle id="XMLID_310_" class="st1" cx="1271.6" cy="90.2" r=".5"/><circle id="XMLID_305_" class="st1" cx="1277.7" cy="81.9" r=".5"/><circle id="XMLID_304_" class="st2" cx="1292.4" cy="74.3" r=".5"/><circle id="XMLID_286_" class="st1" cx="1298" cy="67.1" r=".5"/><circle id="XMLID_276_" class="st1" cx="1251.1" cy="116.1" r=".5"/><circle id="XMLID_273_" class="st2" cx="1259.4" cy="96" r=".5"/><circle id="XMLID_271_" class="st1" cx="1235.3" cy="99.7" r=".5"/><circle id="XMLID_270_" class="st2" cx="1284.1" cy="96.4" r=".5"/><circle id="XMLID_269_" class="st1" cx="1281.3" cy="72" r=".5"/><circle id="XMLID_241_" class="st3" cx="1264.4" cy="81.2" r=".5"/><circle id="XMLID_236_" class="st1" cx="1234.8" cy="116.8" r=".5"/><circle id="XMLID_229_" class="st2" cx="1240.4" cy="109.6" r=".5"/><circle id="XMLID_228_" class="st1" cx="1224.7" cy="110.7" r=".5"/><circle id="XMLID_227_" class="st2" cx="1218.2" cy="104.4" r=".5"/><circle id="XMLID_226_" class="st1" cx="1175.6" cy="130" r=".5"/><circle id="XMLID_225_" class="st4" cx="1181.7" cy="121.6" r=".5"/><circle id="XMLID_222_" class="st2" cx="1196.4" cy="114.1" r=".5"/><circle id="XMLID_217_" class="st1" cx="1202" cy="106.9" r=".5"/><circle id="XMLID_216_" class="st5" cx="1178.6" cy="144.3" r=".5"/><circle id="XMLID_214_" class="st2" cx="1163.4" cy="135.7" r=".5"/><circle id="XMLID_213_" class="st1" cx="1189.2" cy="120.9" r=".5"/><circle id="XMLID_212_" class="st5" cx="1091" cy="71.4" r=".5"/><circle id="XMLID_211_" class="st4" cx="1189.2" cy="111.1" r=".5"/><circle id="XMLID_210_" class="st3" cx="1168.4" cy="121" r=".5"/><circle id="XMLID_206_" class="st2" cx="1177.4" cy="133.7" r=".5"/><circle id="XMLID_205_" class="st1" cx="1161.7" cy="132.1" r=".5"/><circle id="XMLID_200_" class="st5" cx="1073.5" cy="92.4" r=".7"/><circle id="XMLID_140_" class="st5" cx="1031.6" cy="101.8" r=".7"/><circle id="XMLID_203_" class="st2" cx="1269.2" cy="94.2" r=".7"/><circle id="XMLID_208_" class="st2" cx="1307.3" cy="73.7" r=".7"/><circle id="XMLID_209_" class="st2" cx="1332.9" cy="90.7" r=".7"/><circle id="XMLID_215_" class="st2" cx="1347.6" cy="70" r=".7"/><circle id="XMLID_157_" class="st2" cx="1151.7" cy="131.5" r=".5"/><circle id="XMLID_153_" class="st1" cx="1135.3" cy="131.1" r=".5"/><circle id="XMLID_150_" class="st2" cx="1092.3" cy="152.9" r=".5"/><circle id="XMLID_149_" class="st1" cx="1084.4" cy="143.5" r=".5"/><circle id="XMLID_147_" class="st1" cx="1118" cy="133.1" r=".5"/><circle id="XMLID_143_" class="st1" cx="1063.4" cy="153.7" r=".5"/><circle id="XMLID_158_" class="st1" cx="1004.3" cy="152.9" r=".5"/><circle id="XMLID_185_" class="st2" cx="1301.2" cy="65.5" r=".5"/><circle id="XMLID_182_" class="st2" cx="1282.3" cy="80" r=".5"/><circle id="XMLID_181_" class="st1" cx="1286" cy="71.7" r=".5"/><circle id="XMLID_194_" class="st1" cx="1234.1" cy="85.7" r=".5"/><circle id="XMLID_193_" class="st2" cx="1237.4" cy="64.2" r=".5"/><circle id="XMLID_192_" class="st1" cx="1222.4" cy="69" r=".5"/><circle id="XMLID_188_" class="st1" cx="1218.5" cy="90.1" r=".5"/><circle id="XMLID_187_" class="st2" cx="1222.2" cy="81.8" r=".5"/><circle id="XMLID_186_" class="st1" cx="1207.1" cy="86.6" r=".5"/><circle id="XMLID_328_" class="st2" cx="1008" cy="164.1" r=".5"/><circle id="XMLID_323_" class="st1" cx="1085" cy="150.9" r=".5"/><circle id="XMLID_320_" class="st2" cx="1051.5" cy="170" r=".5"/><circle id="XMLID_313_" class="st1" cx="1146.7" cy="136" r=".5"/><circle id="XMLID_309_" class="st1" cx="1167.8" cy="110.6" r=".5"/><circle id="XMLID_308_" class="st2" cx="1159.1" cy="130.5" r=".5"/><circle id="XMLID_307_" class="st1" cx="1174.9" cy="129.7" r=".5"/><circle id="XMLID_306_" class="st2" cx="1134.3" cy="129.6" r=".5"/><circle id="XMLID_303_" class="st1" cx="1184" cy="110.2" r=".5"/><circle id="XMLID_302_" class="st2" cx="1178.3" cy="117.3" r=".5"/><circle id="XMLID_301_" class="st1" cx="1194.1" cy="116.5" r=".5"/><circle id="XMLID_300_" class="st2" cx="1200.5" cy="123" r=".5"/><circle id="XMLID_299_" class="st1" cx="1244.9" cy="99.2" r=".5"/><circle id="XMLID_298_" class="st4" cx="1237.3" cy="106.5" r=".5"/><circle id="XMLID_297_" class="st2" cx="1222.5" cy="113.7" r=".5"/><circle id="XMLID_296_" class="st1" cx="1216.7" cy="120.8" r=".5"/><circle id="XMLID_295_" class="st5" cx="1240.8" cy="83.9" r=".5"/><circle id="XMLID_294_" class="st2" cx="1255.9" cy="92.8" r=".5"/><circle id="XMLID_293_" class="st1" cx="1229.8" cy="107.1" r=".5"/><circle id="XMLID_292_" class="st5" cx="1231.2" cy="91.9" r=".5"/><circle id="XMLID_291_" class="st4" cx="1233.5" cy="116.3" r=".5"/><circle id="XMLID_290_" class="st3" cx="1250.6" cy="107.4" r=".5"/><circle id="XMLID_289_" class="st1" cx="1248.7" cy="88.6" r=".5"/><circle id="XMLID_288_" class="st2" cx="1241.8" cy="94.6" r=".5"/><circle id="XMLID_287_" class="st1" cx="1257.5" cy="96.5" r=".5"/><circle id="XMLID_281_" class="st2" cx="1321" cy="70.4" r=".7"/><circle id="XMLID_280_" class="st5" cx="1231.1" cy="85.3" r=".7"/><circle id="XMLID_279_" class="st2" cx="1191.9" cy="89.3" r=".7"/><circle id="XMLID_278_" class="st2" cx="1279.5" cy="88.4" r=".7"/><circle id="XMLID_277_" class="st2" cx="1149.2" cy="132.1" r=".7"/><circle id="XMLID_275_" class="st2" cx="1093.3" cy="126.4" r=".7"/><circle id="XMLID_274_" class="st2" cx="1078.2" cy="146.9" r=".7"/><circle id="XMLID_265_" class="st2" cx="1267.5" cy="97.3" r=".5"/><circle id="XMLID_264_" class="st1" cx="1314.2" cy="80.4" r=".5"/><circle id="XMLID_263_" class="st1" cx="1306.6" cy="87.4" r=".5"/><circle id="XMLID_262_" class="st2" cx="1290.8" cy="92" r=".5"/><circle id="XMLID_261_" class="st1" cx="1283.9" cy="98" r=".5"/><circle id="XMLID_259_" class="st2" cx="1327.3" cy="77.1" r=".5"/><circle id="XMLID_258_" class="st1" cx="1343" cy="79" r=".5"/><circle id="XMLID_257_" class="st1" cx="1301.2" cy="96.4" r=".5"/><circle id="XMLID_255_" class="st2" cx="1349.4" cy="62.6" r=".5"/><circle id="XMLID_254_" class="st1" cx="1364.2" cy="69.3" r=".5"/><circle id="XMLID_218_" class="st1" cx="1184.2" cy="141.3" r=".5"/><circle id="XMLID_146_" class="st1" cx="1119.1" cy="72.5" r=".5"/><circle id="XMLID_160_" class="st1" cx="1130.8" cy="90.7" r=".5"/><circle id="XMLID_136_" class="st2" cx="1106.8" cy="98.5" r=".5"/><circle id="XMLID_132_" class="st2" cx="1048.1" cy="62.9" r=".5"/><circle id="XMLID_135_" class="st1" cx="1155.1" cy="81.2" r=".5"/><circle id="XMLID_145_" class="st1" cx="1174.9" cy="65.1" r=".5"/><circle id="XMLID_325_" class="st1" cx="1176.9" cy="49.1" r=".5"/><circle id="XMLID_324_" class="st2" cx="1188.2" cy="17.1" r=".5"/><circle id="XMLID_319_" class="st1" cx="1149.2" cy="52.4" r=".5"/><circle id="XMLID_316_" class="st5" cx="1188.7" cy="36.5" r=".5"/><circle id="XMLID_314_" class="st5" cx="1182.2" cy="63.4" r=".5"/><circle id="XMLID_282_" class="st1" cx="1205.8" cy="59.5" r=".5"/><circle id="XMLID_272_" class="st5" cx="1228.1" cy="39.8" r=".7"/><circle id="XMLID_267_" class="st1" cx="1117.7" cy="28.5" r=".5"/><circle id="XMLID_170_" class="st5" cx="914.1" cy="77.5" r=".5"/><circle id="XMLID_168_" class="st1" cx="1018.9" cy="117.3" r=".5"/><circle id="XMLID_167_" class="st5" cx="896.6" cy="98.4" r=".7"/><circle id="XMLID_156_" class="st5" cx="1051" cy="129.1" r=".7"/><circle id="XMLID_162_" class="st2" cx="923.2" cy="151.1" r=".5"/><circle id="XMLID_161_" class="st1" cx="886.4" cy="142.8" r=".5"/><circle id="XMLID_159_" class="st1" cx="950.5" cy="98.8" r=".5"/><circle id="XMLID_155_" class="st2" cx="1016.3" cy="115.8" r=".5"/><circle id="XMLID_154_" class="st2" cx="984.8" cy="127.8" r=".5"/><circle id="XMLID_151_" class="st2" cx="882.4" cy="169.5" r=".7"/><circle id="XMLID_144_" class="st1" cx="950" cy="70.7" r=".5"/><circle id="XMLID_130_" class="st1" cx="996.6" cy="88.4" r=".5"/><circle id="XMLID_137_" class="st1" cx="926.9" cy="121.3" r=".5"/><circle id="XMLID_285_" class="st5" cx="1559.6" cy="149.4" r=".5"/><circle id="XMLID_284_" class="st5" cx="1542.1" cy="128.4" r=".7"/><circle id="XMLID_283_" class="st5" cx="1500.3" cy="119.1" r=".7"/><circle id="XMLID_240_" class="st1" cx="1532" cy="67.2" r=".5"/><circle id="XMLID_238_" class="st1" cx="1473" cy="68" r=".5"/><circle id="XMLID_207_" class="st2" cx="1546.8" cy="74" r=".7"/><circle id="XMLID_202_" class="st1" cx="1587.7" cy="148.3" r=".5"/><circle id="XMLID_201_" class="st1" cx="1602.5" cy="122.5" r=".5"/><circle id="XMLID_199_" class="st2" cx="1575.5" cy="122.3" r=".5"/><circle id="XMLID_197_" class="st2" cx="1516.7" cy="157.9" r=".5"/><circle id="XMLID_196_" class="st1" cx="1546.1" cy="177.8" r=".5"/><circle id="XMLID_195_" class="st5" cx="1402.2" cy="143.4" r=".5"/><circle id="XMLID_190_" class="st1" cx="1487.5" cy="103.5" r=".5"/><circle id="XMLID_189_" class="st5" cx="1384.7" cy="122.4" r=".7"/><circle id="XMLID_184_" class="st5" cx="1318.8" cy="97.8" r=".7"/><circle id="XMLID_179_" class="st5" cx="1519.7" cy="91.7" r=".7"/><circle id="XMLID_178_" class="st2" cx="1411.3" cy="69.7" r=".5"/><circle id="XMLID_177_" class="st1" cx="1374.6" cy="78" r=".5"/><circle id="XMLID_94_" class="st1" cx="1364.8" cy="2.1" r=".5"/><circle id="XMLID_92_" class="st1" cx="1349.3" cy="6.8" r=".5"/><circle id="XMLID_91_" class="st1" cx="1337.9" cy="3.6" r=".5"/><circle id="XMLID_90_" class="st2" cx="1338.8" cy="7.4" r=".5"/><circle id="XMLID_89_" class="st1" cx="1304.1" cy="42.9" r=".5"/><circle id="XMLID_88_" class="st1" cx="1307.9" cy="33.3" r=".5"/><circle id="XMLID_87_" class="st2" cx="1320.2" cy="22.3" r=".5"/><circle id="XMLID_86_" class="st1" cx="1323.8" cy="13.9" r=".5"/><circle id="XMLID_85_" class="st2" cx="1293.7" cy="51.6" r=".5"/><circle id="XMLID_84_" class="st1" cx="1271.4" cy="61.3" r=".5"/><circle id="XMLID_83_" class="st2" cx="1317.8" cy="45.7" r=".5"/><circle id="XMLID_82_" class="st1" cx="1308.9" cy="22.9" r=".5"/><circle id="XMLID_81_" class="st3" cx="1294.8" cy="36" r=".5"/><circle id="XMLID_80_" class="st2" cx="1256" cy="70.1" r=".5"/><circle id="XMLID_79_" class="st2" cx="1302.8" cy="47.4" r=".7"/><circle id="XMLID_78_" class="st2" cx="1334.5" cy="17.9" r=".7"/><circle id="XMLID_77_" class="st2" cx="1363.5" cy="27.9" r=".7"/><circle id="XMLID_76_" class="st2" cx="1372.5" cy="4.1" r=".7"/><circle id="XMLID_75_" class="st2" cx="1326.5" cy="11.5" r=".5"/><circle id="XMLID_74_" class="st2" cx="1311.9" cy="30.3" r=".5"/><circle id="XMLID_62_" class="st1" cx="1313.4" cy="21.3" r=".5"/><circle id="XMLID_61_" class="st1" cx="1266.6" cy="48" r=".5"/><circle id="XMLID_59_" class="st2" cx="1264.5" cy="26.4" r=".5"/><circle id="XMLID_58_" class="st1" cx="1251.1" cy="34.8" r=".5"/><circle id="XMLID_57_" class="st1" cx="1252.7" cy="56.3" r=".5"/><circle id="XMLID_56_" class="st2" cx="1254.2" cy="47.3" r=".5"/><circle id="XMLID_54_" class="st1" cx="1280.5" cy="58.4" r=".5"/><circle id="XMLID_36_" class="st4" cx="1275" cy="67.3" r=".5"/><circle id="XMLID_35_" class="st5" cx="1272.7" cy="44.5" r=".5"/><circle id="XMLID_34_" class="st2" cx="1289.6" cy="49.4" r=".5"/><circle id="XMLID_27_" class="st1" cx="1267.9" cy="69.8" r=".5"/><circle id="XMLID_26_" class="st5" cx="1265.4" cy="54.7" r=".5"/><circle id="XMLID_25_" class="st3" cx="1288.1" cy="64.9" r=".5"/><circle id="XMLID_24_" class="st1" cx="1281.5" cy="47.1" r=".5"/><circle id="XMLID_23_" class="st2" cx="1276.4" cy="54.6" r=".5"/><circle id="XMLID_22_" class="st1" cx="1292" cy="52.5" r=".5"/><circle id="XMLID_21_" class="st2" cx="1346.9" cy="11.3" r=".7"/><circle id="XMLID_20_" class="st5" cx="1263.7" cy="48.4" r=".7"/><circle id="XMLID_252_" class="st1" cx="1382" cy="59.5" r=".5"/><circle id="XMLID_251_" class="st1" cx="1377.3" cy="46.3" r=".5"/><circle id="XMLID_250_" class="st1" cx="1391.2" cy="56.6" r=".5"/><circle id="XMLID_249_" class="st4" cx="1385.6" cy="65.6" r=".5"/><circle id="XMLID_248_" class="st5" cx="1383.4" cy="42.8" r=".5"/><circle id="XMLID_247_" class="st5" cx="1376" cy="52.9" r=".5"/><circle id="XMLID_246_" class="st1" cx="1392.1" cy="45.3" r=".5"/><circle id="XMLID_245_" class="st2" cx="1387" cy="52.9" r=".5"/><circle id="XMLID_244_" class="st5" cx="1374.3" cy="46.6" r=".7"/><circle id="XMLID_19_" class="st2" cx="1311.2" cy="39.1" r=".7"/><circle id="XMLID_18_" class="st2" cx="1301.9" cy="50.8" r=".5"/><circle id="XMLID_17_" class="st1" cx="1342.8" cy="22.6" r=".5"/><circle id="XMLID_16_" class="st1" cx="1337.2" cy="31.4" r=".5"/><circle id="XMLID_12_" class="st2" cx="1323.1" cy="39.8" r=".5"/><circle id="XMLID_10_" class="st1" cx="1318" cy="47.3" r=".5"/><circle id="XMLID_174_" class="st1" cx="1352" cy="42.5" r=".5"/><circle id="XMLID_172_" class="st2" cx="1341.6" cy="51.2" r=".5"/><circle id="XMLID_163_" class="st2" cx="1365.7" cy="45.3" r=".5"/><circle id="XMLID_152_" class="st3" cx="1342.7" cy="35.6" r=".5"/><circle id="XMLID_148_" class="st2" cx="1350.7" cy="47" r=".7"/><circle id="XMLID_142_" class="st2" cx="1337.5" cy="49" r=".5"/><circle id="XMLID_141_" class="st2" cx="1359.1" cy="38.7" r=".7"/><circle id="XMLID_139_" class="st2" cx="1349.8" cy="50.4" r=".5"/><circle id="XMLID_138_" class="st2" cx="1371" cy="39.4" r=".5"/><circle id="XMLID_134_" class="st1" cx="1365.9" cy="47" r=".5"/><circle id="XMLID_224_" class="st1" cx="1392.4" cy="17.8" r=".5"/><circle id="XMLID_223_" class="st2" cx="1382" cy="26.4" r=".5"/><circle id="XMLID_221_" class="st2" cx="1406" cy="20.6" r=".5"/><circle id="XMLID_220_" class="st3" cx="1383.1" cy="10.9" r=".5"/><circle id="XMLID_219_" class="st2" cx="1391.1" cy="22.2" r=".7"/><circle id="XMLID_204_" class="st2" cx="1377.8" cy="24.2" r=".5"/><circle id="XMLID_198_" class="st2" cx="1399.5" cy="14" r=".7"/><circle id="XMLID_191_" class="st2" cx="1390.2" cy="25.7" r=".5"/><circle id="XMLID_266_" class="st1" cx="1417.1" cy="26.7" r=".5"/><circle id="XMLID_260_" class="st2" cx="1406.6" cy="35.3" r=".5"/><circle id="XMLID_256_" class="st2" cx="1415.7" cy="31.1" r=".7"/><circle id="XMLID_253_" class="st2" cx="1414.8" cy="34.5" r=".5"/><circle id="XMLID_183_" class="st2" cx="1411.3" cy="14.7" r=".5"/><circle id="XMLID_180_" class="st1" cx="1406.2" cy="22.2" r=".5"/><circle id="XMLID_243_" class="st1" cx="1431.4" cy="10.7" r=".5"/><circle id="XMLID_242_" class="st2" cx="1421" cy="19.3" r=".5"/><circle id="XMLID_239_" class="st2" cx="1445.1" cy="13.4" r=".5"/><circle id="XMLID_237_" class="st3" cx="1422.1" cy="3.8" r=".5"/><circle id="XMLID_235_" class="st2" cx="1430.1" cy="15.1" r=".7"/><circle id="XMLID_234_" class="st2" cx="1416.9" cy="17.1" r=".5"/><circle id="XMLID_233_" class="st2" cx="1438.5" cy="6.9" r=".7"/><circle id="XMLID_232_" class="st2" cx="1429.2" cy="18.5" r=".5"/><circle id="XMLID_231_" class="st2" cx="1450.4" cy="7.5" r=".5"/><circle id="XMLID_230_" class="st1" cx="1445.2" cy="15.1" r=".5"/><circle id="XMLID_8_" class="st2" cx="1354.7" cy="16.2" r=".5"/><circle id="XMLID_7_" class="st1" cx="1370.4" cy="14.1" r=".5"/><circle id="XMLID_6_" class="st1" cx="1334.3" cy="41.4" r=".5"/><circle id="XMLID_3_" class="st5" cx="1351.6" cy="38.4" r=".7"/><circle id="XMLID_2_" class="st1" cx="1400.6" cy="5.1" r=".5"/><circle id="XMLID_176_" class="st1" cx="1438.7" cy="122" r=".5"/><circle id="XMLID_175_" class="st2" cx="1484.9" cy="105" r=".5"/><circle id="XMLID_173_" class="st2" cx="1453.4" cy="93" r=".5"/><circle id="XMLID_171_" class="st1" cx="1438.2" cy="150.1" r=".5"/><circle id="XMLID_169_" class="st2" cx="1432" cy="205.6" r="1.2"/><circle id="XMLID_165_" class="st1" cx="1474.2" cy="141.4" r=".5"/><circle id="XMLID_164_" class="st1" cx="1415" cy="99.5" r=".5"/><path id="XMLID_129_" class="st6" d="M1548 323.9c6.7-33.8-13.8-66.8-46.4-76.1 1.5-4 2.7-8.1 3.5-12.4 8.5-42.7-19.2-84.2-61.9-92.7-24.8-4.9-49.3 2.4-67 17.8-11.6 10-20.3 23.5-24.5 39.2l.3-1.6c3.3-16.4 10.8-31 21.2-42.6-4.3-6-10.4-10.9-17.9-13.5-6.7-2.4-13.6-2.8-20.1-1.4-8-12.5-20.1-22.6-35.2-27.9-36.3-12.9-76.1 6-89.1 42.2v.1c-19.8-.5-38.5 11.6-45.5 31.3-8.7 24.5 4 51.5 28.6 60.2 16.5 5.9 34 2 46.5-8.6 4 2.4 8.2 4.4 12.7 6 31.7 11.3 66.3-1.8 83-29.5 4.4.8 8.8.7 13.1 0-2.9 39.1 23.8 75.2 63.2 83 2.1.4 4.2.7 6.3 1-7.1 35.6 16.1 70.3 51.7 77.4 35.8 6.9 70.4-16.3 77.5-51.9z"/><circle id="XMLID_128_" class="st6" cx="1343.3" cy="176.1" r="36.9"/><circle id="XMLID_127_" class="st7" cx="1213.2" cy="194" r="36.5"/><circle id="XMLID_126_" class="st7" cx="1279.4" cy="179.8" r="68.8"/><circle id="XMLID_125_" class="st7" cx="1344.7" cy="179.9" r="36.9"/><circle id="XMLID_124_" class="st6" cx="1428.4" cy="219.2" r="78.4"/><circle id="XMLID_123_" class="st7" cx="1427.9" cy="223.9" r="79.1"/><circle id="XMLID_122_" class="st7" cx="1478.6" cy="288" r="26.9"/><path id="XMLID_121_" class="st8" d="M1179.9 240.1c15.3-12 25.2-30.7 25.2-51.7 0-36.3-29.4-65.7-65.7-65.7-23.7 0-44.4 12.5-56 31.3l.1.2c-10.9 17.7-13.3 40.2-4.8 60.5l-.6-1.2c-5.8-11.7-8.3-24.2-7.9-36.5-1.9-.2-3.8-.4-5.8-.4-26.4 0-47.8 21.4-47.8 47.8 0 5.5.9 10.7 2.6 15.6h-15.1v102.4h217.9v-102.3h-42.1z"/><circle id="XMLID_120_" class="st8" cx="1065.8" cy="228.2" r="51.6"/><circle id="XMLID_119_" class="st9" cx="1069.2" cy="230.6" r="51.6"/><path id="XMLID_118_" class="st9" d="M1046.7 244.8h121.6v56.4h-121.6z"/><path id="XMLID_117_" class="st6" d="M1027.2 217.2c-4.7-46.4-43.8-82.5-91.4-82.5-35.2 0-65.8 19.8-81.3 48.9-3.7 1.6-7.3 3.4-10.7 5.6v.1c-21.1 13.1-35.5 35.8-37.1 62v-1.7c0-12.6 2.6-24.7 7.2-35.6-2.4-.3-4.9-.4-7.4-.4-16.3 0-31.1 6.4-42 16.9-10.6-4.7-22.4-7.4-34.8-7.4-47.2 0-85.5 38.3-85.5 85.5v1.1c-3.5-.7-7.1-1.1-10.7-1.1-28.7 0-52 23.3-52 52s23.3 52 52 52c22 0 40.9-13.7 48.4-33.1 13.6 9.2 30.1 14.6 47.8 14.6 38.1 0 70.4-24.9 81.4-59.3 12-.9 23-5.3 32-12.1 12.2 7.8 26.7 12.3 42.2 12.3 18.2 0 34.9-6.2 48.2-16.5h2.2c9.7 0 19.1-1.5 27.9-4.3 11.1 21.3 33.4 35.9 59 35.9 36.7 0 66.5-29.8 66.5-66.5.1-35.2-27.3-64.1-61.9-66.4z"/><circle id="XMLID_116_" class="st6" cx="806" cy="272" r="59.2"/><circle id="XMLID_115_" class="st7" cx="737.4" cy="316" r="88"/><circle id="XMLID_114_" class="st7" cx="810.6" cy="267.6" r="51.7"/><circle id="XMLID_113_" class="st6" cx="889.2" cy="260.5" r="84.9"/><circle id="XMLID_112_" class="st7" cx="887.4" cy="266.9" r="83.3"/><circle id="XMLID_111_" class="st7" cx="939.3" cy="228" r="88.5"/><circle id="XMLID_110_" class="st8" cx="1139.7" cy="188.7" r="66.1"/><circle id="XMLID_109_" class="st9" cx="1141" cy="193.9" r="64.9"/><circle id="XMLID_108_" class="st7" cx="1024.4" cy="286.3" r="64.8"/><path id="XMLID_107_" class="st10" d="M517.6 238.2l-48.7 151.1h97.5z"/><path id="XMLID_106_" class="st11" d="M1249.9 169.7l-266 177.7c-11.6 7.8-18.6 20.8-18.6 34.7v10.8c0 23.1 18.7 41.8 41.8 41.8h548.2c23.1 0 41.8-18.7 41.8-41.8 0-14-7-27-18.6-34.7l-282.3-188.5c-14-9.4-32.3-9.4-46.3 0z"/><linearGradient id="XMLID_5_" gradientUnits="userSpaceOnUse" x1="985.106" y1="260.497" x2="1242.853" y2="260.497"><stop offset=".41" stop-color="#334671"/><stop offset="1" stop-color="#435A8F"/></linearGradient><path id="XMLID_365_" class="st12" d="M1242.9 174.4l-257.8 172.2 204.5-17.3c-125.7 4.1-65.4-56.5 53.3-154.9z"/><path id="XMLID_104_" class="st13" d="M701.2 373.4l229.6-123.8c14.1-7.6 30.9-8.5 45.8-2.4l289.1 118.4c20.2 8.2 33.3 27.9 33.3 49.6v5.5c0 29.6-24 53.6-53.6 53.6h-518.7c-29.6 0-53.6-24-53.6-53.6-.1-19.9 10.7-38 28.1-47.3z"/><linearGradient id="XMLID_95_" gradientUnits="userSpaceOnUse" x1="658.745" y1="327.573" x2="916.492" y2="327.573" gradientTransform="matrix(.996 .094 -.094 .996 35.034 -74.035)"><stop offset=".41" stop-color="#334671"/><stop offset="1" stop-color="#435A8F"/></linearGradient><path id="XMLID_364_" class="st14" d="M924.7 252.7l-272.8 147.1 205.3 2.1c-105.2-18.4-59.9-62.4 67.5-149.2z"/><path id="XMLID_102_" class="st10" d="M932.8 293.2l-30.5 94.3h60.9z"/><path id="XMLID_100_" class="st10" d="M1168.3 265.8l-26.1 80.7h52.1z"/><path id="XMLID_99_" class="st15" d="M1325.5 201.3l-18.9 66.9-11-29.1-42.4 112.2h114.69999999999999z"/><path id="XMLID_70_" class="st10" d="M777.6 259.1l-42.7 132.4h85.5z"/><path id="XMLID_69_" class="st15" d="M851.4 267l-14.5 53.8-8.4-23.4-32.4 90.1h87.6z"/><path id="XMLID_68_" class="st16" d="M480.3 267l-14.5 53.8-8.4-23.4-32.3 90.1h87.6z"/><path id="XMLID_67_" class="st10" d="M630.2 179.8l-76.9 238.3h153.8z"/><g id="XMLID_64_"><path id="XMLID_66_" class="st17" d="M1218.7 236.5h18.8c1 0 1.9-.8 1.9-1.9 0-1-.8-1.9-1.9-1.9h-18.8c-1 0-1.9.8-1.9 1.9 0 1.1.8 1.9 1.9 1.9z"/><path id="XMLID_65_" class="st17" d="M1217.9 249.5v-.2c0-1 .8-1.8 1.8-1.8h10.1c1 0 1.8-.8 1.8-1.8s-.8-1.8-1.8-1.8h-3.8c-1 0-1.8-.8-1.8-1.8v-.1c0-1 .8-1.8 1.8-1.8h24.6c1 0 1.8.8 1.8 1.8v.2c0 1-.8 1.8-1.8 1.8h-9c-1 0-1.8.8-1.8 1.8s.8 1.8 1.8 1.8h1.2c1 0 1.8.8 1.8 1.8v.2c0 1-.8 1.8-1.8 1.8h-8.5c-1 0-1.8.8-1.8 1.8s.8 1.8 1.8 1.8h5.3c1 0 1.8.8 1.8 1.8v.2c0 1-.8 1.8-1.8 1.8h-8.8c-1 0-1.8.8-1.8 1.8v.1c0 1-.8 1.8-1.8 1.8h-.7c-1 0-1.8-.8-1.8-1.8v-.1c0-1-.8-1.8-1.8-1.8h-2.4c-1 0-1.8-.8-1.8-1.8v-.2c0-1 .8-1.8 1.8-1.8h2.5c1 0 1.8-.8 1.8-1.8s-.8-1.8-1.8-1.8h-3.5c-.8-.1-1.6-.9-1.6-1.9z"/></g><linearGradient id="XMLID_103_" gradientUnits="userSpaceOnUse" x1="1219.383" y1="277.67" x2="1227.815" y2="277.67"><stop offset=".41" stop-color="#334671"/><stop offset="1" stop-color="#435A8F"/></linearGradient><path id="XMLID_63_" class="st18" d="M1227.8 289.1h-8.4l2.1-21.8 3.8-1.1z"/><path id="XMLID_60_" class="st15" d="M1229.5 289.1h-6.5l2.2-22.9 6.5 1.5z"/><circle id="XMLID_53_" class="st15" cx="1245.9" cy="286.2" r="5.2"/><path id="XMLID_52_" class="st15" d="M1245.1 289.1h1.5v28h-1.5z"/><path id="XMLID_97_" class="st15" d="M1246.6 300.5h-1.6c-.6 0-1.1-.5-1.1-1.1v-5.2c0-.6.5-1.1 1.1-1.1h1.6c.6 0 1.1.5 1.1 1.1v5.2c0 .6-.5 1.1-1.1 1.1z"/><path id="XMLID_51_" class="st15" d="M1226.7 325.2l6-28.3-14.1-24-20.5 22.1 4.5 30.2z"/><path id="XMLID_50_" class="st15" d="M1234.8 297.7l-15.9-27.9-.3-.4-25.1 27.2 1.8 1.7 23.3-25.4 14.5 26.5z"/><path id="XMLID_49_" class="st15" d="M1178.8 299.6l8.6 25.3 15.2.3-4.5-31.2z"/><path id="XMLID_48_" class="st19" d="M1215.9 300.5h-3.2v-6.4h3.9z"/><path id="XMLID_47_" class="st19" d="M1219.7 300.5h-3.2l.6-6.4h3.8z"/><path id="XMLID_46_" class="st19" d="M1215.9 301.1l-.5 5.6h-2.7v-5.6"/><path id="XMLID_45_" class="st19" d="M1219.6 301.1l-1 5.6h-2.7l.5-5.6"/><path id="XMLID_44_" class="st20" d="M1204 321.3h23.2v.4h-23.2z"/><linearGradient id="XMLID_105_" gradientUnits="userSpaceOnUse" x1="1099.998" y1="550" x2="1099.998" y2="287.787"><stop offset=".201" stop-color="#2E375B"/><stop offset="1" stop-color="#142042"/></linearGradient><path id="XMLID_55_" class="st21" d="M0 550v-207.2h327.4s15.7-.3 24.2-.4c45.5-.7 88.7-5.8 118.1-5.8 45.6 0 76.9 8.3 76.9 8.3s114.3 21.7 136.9 25.7c53.1 9.4 116.7 8.1 170.8 3.3 83.6-7.5 452.2-70.2 452.2-70.2s88.1-15.9 136.8-15.9c73.4 0 190.4 31.1 295.9 48.1 47.8 7.7 111.8 6.9 135.5 6.9h325.3v207.2h-2200z"/><path id="XMLID_42_" class="st22" d="M1372.2 335.2l10.8-6-30.9-32.3-83.4 13.2 71.4 27.7-2.8-4.4 26.5 7.7z"/><path id="XMLID_41_" class="st10" d="M1587.1 226.4l-45.1 139.7h90.2z"/><path id="XMLID_40_" class="st16" d="M1666.8 209.4l-20.9 77.5-12.1-33.7-46.7 130h126.30000000000001z"/><path id="XMLID_72_" class="st23" d="M1760.9 433.1l-47.8-49.9h-126l115.4 36.1-2.5-3.9z"/><path id="XMLID_39_" class="st24" d="M912.1 409.4l-39.4-11.4 1.6 2.5-74.5-23.3s60.7-2.2 79.5-6.1l32.8 38.3z"/><path id="XMLID_38_" class="st16" d="M1441.4 170.3l-23.5 79.2-13.7-34.4-52.8 132.7h142.7z"/><path id="XMLID_37_" class="st10" d="M1310.9 265.8l-44.1 129.8h88.2z"/><path id="XMLID_43_" class="st25" d="M1548.3 404.4l-54.2-56.6h-142.7l130.7 40.9-2.8-4.4z"/><path id="XMLID_33_" class="st10" d="M1512.8 173.5l-75.7 234.7h151.5z"/><path id="XMLID_71_" class="st26" d="M1702 494.8l-264.9-87h150.9z"/><path id="XMLID_73_" class="st26" d="M1421 446.8l-154.2-50.7 88.2-.5z"/><g id="XMLID_31_"><path id="XMLID_32_" class="st26" d="M517.7 430.7l212.4 69.7-91.4-69.7z"/><path id="XMLID_98_" class="st26" d="M850.9 487.3l-73.2-55.9h-57.2l-11.3-11.9h-85.3l78.1 24.5-1.7-2.6 41.3 12-2.8-3z"/></g><path id="XMLID_30_" class="st25" d="M1209.6 347.8l-62.1-17.6 39.5-6.5z"/><path id="XMLID_29_" class="st24" d="M974.5 386.8l-65.6-19.6 45.6-6.6z"/><path id="XMLID_28_" class="st24" d="M835.3 402.8l-20-26.2s-45.5 2.1-69.9 0l89.9 26.2z"/><path id="XMLID_15_" class="st27" d="M507.6 348.5l64.7 23.3-20-26.2s-35.4-7.3-64.6-8.8c-19.2-1.3-44.7.7-44.7.7l45.3 25.4-2.1-8 39.8 16.9-18.4-23.3z"/><path id="XMLID_14_" class="st22" d="M625.2 411.2l42-42.9s-44.1-10.3-68.5-12.4l26.5 55.3z"/><path id="XMLID_13_" class="st16" d="M676.5 287.8l-15.8 58.8-9.2-25.6-35.4 98.6h95.8z"/><path id="XMLID_11_" class="st10" d="M578.3 242.7l-60.7 188h121.4z"/><path id="XMLID_9_" class="st10" d="M728.9 280.3l-48.8 151.1h97.5z"/><linearGradient id="XMLID_166_" gradientUnits="userSpaceOnUse" x1="1178.601" y1="302.274" x2="1214.945" y2="265.931"><stop offset=".41" stop-color="#334671"/><stop offset="1" stop-color="#435A8F"/></linearGradient><path id="XMLID_96_" class="st28" d="M1191.8 278.3l-15.3 21.4 1.1 1.5 15.8-3 25.2-28.6z"/><path id="XMLID_101_" class="st29" d="M1240.7 286.2c0 .5.1 1.1.2 1.6h9.9c.2-.5.2-1 .2-1.6 0-.5-.1-1.1-.2-1.6h-9.9c-.2.5-.2 1-.2 1.6z"/><linearGradient id="XMLID_367_" gradientUnits="userSpaceOnUse" x1="712.447" y1="-22.447" x2="974.962" y2="21.985" gradientTransform="matrix(.84 -.543 .543 .84 131.522 566.957)"><stop offset=".002" stop-color="#FFF9FF"/><stop offset=".347" stop-color="#3A6CC5"/><stop offset=".64" stop-color="#2D5497"/></linearGradient><path id="XMLID_133_" class="st30" d="M953.2 36.4l-225.7 145.9c-.3.2-.6.1-.8-.2l-.1-.2c-.2-.3-.1-.6.2-.8l225.6-145.9c.3-.2.6-.1.8.2l.1.2c.2.2.2.6-.1.8z"/><linearGradient id="XMLID_368_" gradientUnits="userSpaceOnUse" x1="811.206" y1="-4.244" x2="1073.722" y2="40.188" gradientTransform="matrix(.84 -.543 .543 .84 131.522 566.957)"><stop offset=".002" stop-color="#FFF9FF"/><stop offset=".347" stop-color="#3A6CC5"/><stop offset=".64" stop-color="#2D5497"/></linearGradient><path id="XMLID_93_" class="st31" d="M1046-2l-225.7 146c-.3.2-.6.1-.8-.2l-.1-.2c-.2-.3-.1-.6.2-.8l225.6-146c.3-.2.6-.1.8.2l.1.2c.3.3.2.7-.1.8z"/><circle id="XMLID_366_" class="st2" cx="579.4" cy="195.5" r=".5"/><circle id="XMLID_363_" class="st5" cx="765.6" cy="77.6" r=".5"/><circle id="XMLID_362_" class="st4" cx="578.9" cy="172.4" r=".5"/><circle id="XMLID_358_" class="st5" cx="783.1" cy="98.6" r=".7"/><circle id="XMLID_357_" class="st5" cx="825" cy="108" r=".7"/><circle id="XMLID_354_" class="st1" cx="730.1" cy="188.7" r=".5"/><circle id="XMLID_352_" class="st1" cx="689.1" cy="136.5" r=".5"/><circle id="XMLID_348_" class="st1" cx="584" cy="171.6" r=".5"/><circle id="XMLID_343_" class="st2" cx="763.3" cy="132.7" r=".7"/><circle id="XMLID_342_" class="st1" cx="737.5" cy="78.7" r=".5"/><circle id="XMLID_131_" class="st1" cx="902.3" cy="43" r=".5"/><circle id="XMLID_341_" class="st1" cx="663.6" cy="105.7" r=".5"/><circle id="XMLID_340_" class="st2" cx="738.4" cy="116" r=".5"/><circle id="XMLID_339_" class="st2" cx="835.3" cy="41.4" r=".5"/><circle id="XMLID_338_" class="st1" cx="612.1" cy="135.3" r=".5"/><circle id="XMLID_337_" class="st1" cx="619.5" cy="80.1" r=".5"/><circle id="XMLID_336_" class="st1" cx="679.6" cy="55.3" r=".5"/><circle id="XMLID_335_" class="st2" cx="668.4" cy="23.3" r=".5"/><circle id="XMLID_334_" class="st1" cx="707.4" cy="58.7" r=".5"/><circle id="XMLID_333_" class="st5" cx="667.9" cy="42.7" r=".5"/><circle id="XMLID_332_" class="st5" cx="612.1" cy="78.4" r=".5"/><circle id="XMLID_331_" class="st1" cx="738.8" cy="34.7" r=".5"/><circle id="XMLID_329_" class="st1" cx="837.7" cy="123.6" r=".5"/><circle id="XMLID_327_" class="st5" cx="805.6" cy="135.3" r=".7"/><circle id="XMLID_361_" class="st5" cx="1746.5" cy="67.4" r=".5"/><circle id="XMLID_360_" class="st5" cx="1764.1" cy="88.4" r=".7"/><circle id="XMLID_359_" class="st1" cx="1670.1" cy="126.2" r=".5"/><circle id="XMLID_356_" class="st2" cx="1744.2" cy="122.4" r=".7"/><circle id="XMLID_355_" class="st1" cx="1718.4" cy="68.5" r=".5"/><circle id="XMLID_353_" class="st1" cx="1644.5" cy="95.5" r=".5"/><circle id="XMLID_351_" class="st2" cx="1719.3" cy="105.8" r=".5"/><circle id="XMLID_350_" class="st1" cx="1593" cy="125" r=".5"/><circle id="XMLID_349_" class="st1" cx="1600.4" cy="69.8" r=".5"/><circle id="XMLID_347_" class="st1" cx="1660.6" cy="45.1" r=".5"/><circle id="XMLID_346_" class="st2" cx="1649.3" cy="13.1" r=".5"/><circle id="XMLID_345_" class="st1" cx="1688.3" cy="48.4" r=".5"/><circle id="XMLID_344_" class="st5" cx="1648.8" cy="32.5" r=".5"/><circle id="XMLID_326_" class="st5" cx="1593" cy="68.1" r=".5"/><circle id="XMLID_317_" class="st1" cx="1719.8" cy="24.5" r=".5"/><circle id="XMLID_268_" class="st5" cx="1786.5" cy="125.1" r=".7"/><circle id="XMLID_321_" class="st2" cx="871.8" cy="134.1" r=".5"/><circle id="XMLID_318_" class="st1" cx="860" cy="94.6" r=".5"/></svg>